<?xml version="1.0" encoding="utf-8"?>
<!-- Generator: Adobe Illustrator 21.1.0, SVG Export Plug-In . SVG Version: 6.00 Build 0)  -->
<svg version="1.1" id="Layer_1" xmlns="http://www.w3.org/2000/svg" xmlns:xlink="http://www.w3.org/1999/xlink" x="0px" y="0px"
	 viewBox="0 0 171.8 58.5" style="enable-background:new 0 0 171.8 58.5;" xml:space="preserve">
<style type="text/css">
	.st0{fill:#CC0000;}
	.st1{fill:#FFFFFF;}
	.st2{fill:#FFCC00;}
</style>
<g>
	<g>
		<path class="st0" d="M0,0v58.4h171.8V0H0z"/>
	</g>
	<polygon class="st1" points="91.4,36.6 91.5,36.6 96.3,19.8 98,19.8 98,15.7 89,15.7 89,19.8 91.2,19.8 89.1,27.2 85.8,15.6 
		81.3,15.6 78,27.2 75.9,19.8 78.1,19.8 78.1,15.7 69.1,15.7 69.1,19.8 70.8,19.8 75.7,36.6 75.8,36.6 80.2,36.6 83.6,24.3 
		86.9,36.6 	"/>
	<path class="st1" d="M59.5,37.2c6,0,10.9-4.9,10.9-10.9s-4.9-10.9-10.9-10.9s-10.9,4.9-10.9,10.9C48.6,32.4,53.5,37.2,59.5,37.2z
		 M59.5,20.8c3.1,0,5.6,2.5,5.6,5.6S62.6,32,59.5,32s-5.6-2.5-5.6-5.6S56.4,20.8,59.5,20.8z"/>
	<path class="st1" d="M48.7,36.7v-4.6h-2.4l-2-2.8c2.4-1.2,4-3.7,4-6.5c0-4.1-3.3-7.4-7.3-7.4H30.8v4.9h1.7v11.5h-1.7v4.9h7.8v-4.9
		h-0.8v-2.3h0.3l5.3,7.2h0.1H48C48,36.7,48.7,36.7,48.7,36.7z M40.3,26h-2.5v-5.7h2.5c1.4,0.1,2.6,1.4,2.6,2.8
		C42.9,24.6,41.7,25.8,40.3,26z"/>
	<path class="st1" d="M30.3,28.7h-5.6c-1,1.7-2.8,2.9-4.9,2.9c-3.1,0-5.6-2.5-5.6-5.6s2.5-5.6,5.6-5.6c2.2,0,4.2,1.3,5.1,3.2h4.9
		v-8.2h-4.3v1.8c-1.3-1.6-3.6-2.1-5.7-2.1C13.9,15.1,9,20,9,25.9c0,6,4.8,10.8,10.8,10.8C24.9,36.8,29.1,33.3,30.3,28.7z"/>
	<polygon class="st1" points="121.3,15.9 112.3,15.9 112.3,20 114.6,20 114.6,28.5 106.4,15.7 98.9,15.7 98.9,19.8 100.6,19.8 
		100.6,32.4 98.9,32.4 98.9,36.5 107.9,36.5 107.9,32.4 105.7,32.4 105.7,23.8 113.8,36.7 119.7,36.7 119.7,20 121.3,20 	"/>
	<path class="st1" d="M20.4,43.8c0.1,0,0.2,0.1,0.2,0.2c0,0.1-0.9,2.7-1,3.2l0,0c-0.1-0.7-0.9-3.2-0.9-3.2c0-0.1,0.1-0.1,0.2-0.2
		v-0.1h-2.5v0.1c0.1,0,0.2,0,0.2,0.2c0,0.1-0.7,2.5-1,3.2l0,0c-0.3-0.8-1-3.1-1-3.2s0.1-0.1,0.2-0.2v-0.1h-1.9v0.1
		c0,0,0.1,0,0.1,0.1c0.1,0.2,1.6,4.9,1.6,5s-0.1,0.2-0.2,0.2v0.1h2.3v-0.1c-0.1,0-0.2-0.1-0.2-0.1c0-0.2,0.8-2.5,1.1-3.7l0,0
		c0.4,1.4,1,3.3,1,3.7c0,0.1-0.1,0.1-0.2,0.1v0.1h2.2v-0.1c-0.1,0-0.2,0-0.2-0.1s1.6-4.7,1.6-4.9c0-0.1,0.1-0.2,0.2-0.2v-0.1H20.4
		L20.4,43.8z"/>
	<path class="st1" d="M28.8,43.6c-1.8,0-3.3,1-3.3,2.8s1.5,2.8,3.3,2.8s3.3-1,3.3-2.8S30.6,43.6,28.8,43.6z M28.8,48
		c-0.9,0-1.7-0.6-1.7-1.5s0.8-1.5,1.7-1.5s1.7,0.6,1.7,1.5S29.7,48,28.8,48z"/>
	<path class="st1" d="M41.9,48.9l-1.2-1.7c0.9-0.2,1.5-0.8,1.5-1.7c0-1.2-0.7-1.7-2.2-1.7h-3.8v0.1c0.3,0,0.3,0.1,0.3,0.2V49
		c0,0.1,0,0.2-0.3,0.2v0.1h2.2v-0.1c-0.3,0-0.3-0.1-0.3-0.2v-1.8h1c0.1,0.2,1.2,1.7,1.2,1.8s-0.1,0.2-0.2,0.2v0.1h2.2v-0.1
		C42,49.1,42,49,41.9,48.9z M39.7,46h-1.8v-1.2h1.8c0.6,0,0.8,0.3,0.8,0.6C40.5,45.7,40.3,46,39.7,46z"/>
	<path class="st1" d="M51.7,47.9h-3.6V44c0-0.1,0-0.2,0.3-0.2v-0.1h-2.2v0.1c0.3,0,0.3,0.1,0.3,0.2v4.9c0,0.1,0,0.2-0.3,0.2v0.1h5.5
		c0.1,0,0.2,0.1,0.2,0.3H52v-1.8h-0.1C51.9,47.9,51.8,47.9,51.7,47.9z"/>
	<path class="st1" d="M59.3,43.7h-3.5v0.1c0.3,0,0.3,0.1,0.3,0.2v4.9c0,0.1,0,0.2-0.3,0.2v0.1h3.4c1.9,0,2.9-1.3,2.9-2.8
		C62.2,44.9,61.3,43.7,59.3,43.7z M59.1,48h-1.3v-3h1.3c1.1,0,1.6,0.6,1.6,1.5C60.6,47.3,60.2,48,59.1,48z"/>
	<path class="st1" d="M73,43.8c0.1,0,0.2,0.1,0.2,0.2c0,0.1-0.9,2.7-1,3.2l0,0c-0.1-0.7-0.9-3.2-0.9-3.2c0-0.1,0.1-0.1,0.2-0.2v-0.1
		H69v0.1c0.1,0,0.2,0,0.2,0.2c0,0.1-0.7,2.5-1,3.2l0,0c-0.3-0.8-1-3.1-1-3.2s0.1-0.1,0.2-0.2v-0.1h-1.9v0.1c0,0,0.1,0,0.1,0.1
		c0.1,0.2,1.6,4.9,1.6,5s-0.1,0.2-0.2,0.2v0.1h2.3v-0.1c-0.1,0-0.2-0.1-0.2-0.1c0-0.2,0.8-2.5,1.1-3.7l0,0c0.4,1.4,1,3.3,1,3.7
		c0,0.1-0.1,0.1-0.2,0.1v0.1h2.2v-0.1c-0.1,0-0.2,0-0.2-0.1s1.6-4.7,1.6-4.9c0-0.1,0.1-0.2,0.2-0.2v-0.1H73L73,43.8z"/>
	<path class="st1" d="M78.7,43.8c0.3,0,0.3,0.1,0.3,0.2v4.9c0,0.1,0,0.2-0.3,0.2v0.1h2.2v-0.1c-0.3,0-0.3-0.1-0.3-0.2V44
		c0-0.1,0-0.2,0.3-0.2v-0.1L78.7,43.8L78.7,43.8z"/>
	<path class="st1" d="M88.7,43.7h-3.5v0.1c0.3,0,0.3,0.1,0.3,0.2v4.9c0,0.1,0,0.2-0.3,0.2v0.1h3.4c1.9,0,2.9-1.3,2.9-2.8
		C91.6,44.9,90.7,43.7,88.7,43.7z M88.5,48h-1.3v-3h1.3c1.1,0,1.6,0.6,1.6,1.5C90,47.3,89.6,48,88.5,48z"/>
	<path class="st1" d="M100.7,43.7h-5.2v0.1c0.3,0,0.3,0.1,0.3,0.2v4.9c0,0.1,0,0.2-0.3,0.2v0.1h5.2c0.1,0,0.2,0.1,0.2,0.2h0.1v-1.8
		h-0.1c0,0.3-0.1,0.3-0.2,0.3h-3.4v-1h2c0.2,0,0.3,0.1,0.3,0.2h0.1v-1.6h-0.1c0,0.1-0.1,0.2-0.3,0.2h-2v-0.9h3.4
		c0.1,0,0.2,0.1,0.2,0.3h0.1v-1.8h-0.1C100.8,43.6,100.8,43.7,100.7,43.7z"/>
	<path class="st1" d="M117.1,48.2v-1.7c0-0.1,0-0.2,0.2-0.2v-0.1h-3.1c-0.1,0-0.1-0.1-0.2-0.2h-0.1v1.5h0.1c0-0.1,0-0.2,0.2-0.2h1.4
		V48c-0.4,0.1-0.9,0.2-1.5,0.2c-0.9,0-2-0.5-2-1.6s0.9-1.7,1.9-1.7c0.9,0,1.9,0.3,1.9,0.5c0,0.1,0,0.1,0,0.1l0.1,0.1l0.7-1.4h-0.1
		l-0.1,0.1c-0.1,0-0.4-0.2-0.8-0.3c-0.7-0.2-1-0.3-1.7-0.3c-1.8,0-3.4,0.9-3.4,2.8s1.7,2.8,3.4,2.8c1.3,0,2.4-0.3,3.4-0.8v-0.1h-0.1
		C117.1,48.4,117.1,48.3,117.1,48.2z"/>
	<path class="st1" d="M126.8,48.9l-1.2-1.7c0.9-0.2,1.5-0.8,1.5-1.7c0-1.2-0.7-1.7-2.2-1.7h-3.8v0.1c0.3,0,0.3,0.1,0.3,0.2V49
		c0,0.1,0,0.2-0.3,0.2v0.1h2.2v-0.1c-0.3,0-0.3-0.1-0.3-0.2v-1.8h1c0.1,0.2,1.2,1.7,1.2,1.8s-0.1,0.2-0.2,0.2v0.1h2.2v-0.1
		C127,49.1,126.9,49,126.8,48.9z M124.7,46h-1.8v-1.2h1.8c0.6,0,0.8,0.3,0.8,0.6C125.5,45.7,125.3,46,124.7,46z"/>
	<path class="st1" d="M134.2,43.6c-1.8,0-3.3,1-3.3,2.8s1.5,2.8,3.3,2.8s3.3-1,3.3-2.8S136,43.6,134.2,43.6z M134.2,48
		c-0.9,0-1.7-0.6-1.7-1.5s0.8-1.5,1.7-1.5s1.7,0.6,1.7,1.5S135.1,48,134.2,48z"/>
	<path class="st1" d="M145.7,43.8c0.3,0,0.3,0.1,0.3,0.2v2.8c0,0.8-0.5,1.1-1.3,1.1s-1.3-0.3-1.3-1.1V44c0-0.1,0-0.2,0.3-0.2v-0.1
		h-2.2v0.1c0.3,0,0.3,0.1,0.3,0.2v2.8c0,1.8,1.3,2.5,2.9,2.5c1.6,0,2.9-0.6,2.9-2.5V44c0-0.1,0-0.2,0.3-0.2v-0.1L145.7,43.8
		L145.7,43.8z"/>
	<path class="st1" d="M156,43.7h-3.8v0.1c0.3,0,0.3,0.1,0.3,0.2v4.9c0,0.1,0,0.2-0.3,0.2v0.1h2.2v-0.1c-0.3,0-0.3-0.1-0.3-0.2v-1.7
		h1.9c1.3,0,2-0.8,2-1.7C158,44.5,157.3,43.7,156,43.7z M155.7,46.1h-1.6v-1.2h1.6c0.6,0,0.8,0.2,0.8,0.6
		C156.5,45.9,156.2,46.1,155.7,46.1z"/>
	<polygon class="st2" points="142.8,6 142.8,11.6 145.6,8.8 	"/>
	<polygon class="st2" points="148.6,5.7 143.1,5.7 145.9,8.5 	"/>
	<path class="st2" d="M155.5,12c-2.1-0.3-4.2-0.1-6.1,0.9c-0.4,0.2-0.9,0-1.1-0.5h-5c-0.3,0.6-0.7,0.6-0.7,0.6
		c-0.2,0.1-0.4,0.1-0.6,0c-2.3-1-4.7-1.5-7.1-0.8c-2.3,0.7-4.2,1.8-5.6,3.9c-1.9,2.8-2.1,6.2-0.8,9.2c1.1,2.5,3.3,4.3,5.8,5.3V37
		h22.6v-6.5c2.4-1,4.7-2.7,5.8-5.2c1.4-3,1.2-6.4-0.7-9.2C160.6,13.7,158.2,12.3,155.5,12z M158.6,15.4c0.5,0,0.8,0.4,0.8,0.8
		c0,0.5-0.4,0.8-0.8,0.8c-0.5,0-0.8-0.4-0.8-0.8C157.8,15.7,158.2,15.4,158.6,15.4z M155.3,13.8c0.5,0,0.8,0.4,0.8,0.8
		c0,0.5-0.4,0.8-0.8,0.8c-0.5,0-0.8-0.4-0.8-0.8C154.4,14.1,154.8,13.8,155.3,13.8z M151.5,14c0.5,0,0.8,0.4,0.8,0.8
		c0,0.5-0.4,0.8-0.8,0.8c-0.5,0-0.8-0.4-0.8-0.8C150.6,14.4,151,14,151.5,14z M145.9,13.8c0.5,0,0.8,0.4,0.8,0.8
		c0,0.5-0.4,0.8-0.8,0.8s-0.8-0.4-0.8-0.8C145,14.2,145.4,13.8,145.9,13.8z M145.9,17.1c0.5,0,0.8,0.4,0.8,0.8
		c0,0.5-0.4,0.8-0.8,0.8S145,18.4,145,18C145,17.5,145.4,17.1,145.9,17.1z M145.9,20.4c0.5,0,0.8,0.4,0.8,0.8c0,0.5-0.4,0.8-0.8,0.8
		s-0.8-0.4-0.8-0.8C145,20.8,145.4,20.4,145.9,20.4z M140.3,14.1c0.5,0,0.8,0.4,0.8,0.8s-0.4,0.8-0.8,0.8c-0.5,0-0.8-0.4-0.8-0.8
		S139.8,14.1,140.3,14.1z M136.4,13.8c0.5,0,0.8,0.4,0.8,0.8c0,0.5-0.4,0.8-0.8,0.8s-0.8-0.4-0.8-0.8
		C135.6,14.2,136,13.8,136.4,13.8z M133.1,15.3c0.5,0,0.8,0.4,0.8,0.8c0,0.4-0.4,0.8-0.8,0.8c-0.5,0-0.8-0.4-0.8-0.8
		S132.6,15.3,133.1,15.3z M130.9,23.9c-0.5,0-0.8-0.4-0.8-0.8s0.4-0.8,0.8-0.8s0.8,0.4,0.8,0.8S131.4,23.9,130.9,23.9z M131,20.1
		c-0.5,0-0.8-0.4-0.8-0.8s0.4-0.8,0.8-0.8c0.5,0,0.8,0.4,0.8,0.8S131.4,20.1,131,20.1z M132.9,27.2c-0.5,0-0.8-0.4-0.8-0.8
		c0-0.5,0.4-0.8,0.8-0.8c0.5,0,0.8,0.4,0.8,0.8C133.7,26.8,133.4,27.2,132.9,27.2z M138.3,34.3c-0.5,0-0.8-0.4-0.8-0.8
		s0.4-0.8,0.8-0.8s0.8,0.4,0.8,0.8S138.8,34.3,138.3,34.3z M142,35.4c-0.5,0-0.8-0.4-0.8-0.8s0.4-0.8,0.8-0.8c0.5,0,0.8,0.4,0.8,0.8
		S142.5,35.4,142,35.4z M143.4,30.9c-0.2,0.7-0.7,1.1-1.4,1.4c-0.5,0.2-1.1,0.1-1.7-0.1c-1-0.4-1.7-1.4-1.6-2.4
		c0.1-0.6,0.4-1.1,0.9-1.3c0.4-0.1,0.9,0.1,1.2,0.5c0.1,0.2,0.2-0.2,0.3-0.3c0.2-0.4,0.1-0.9-0.2-1.3s-0.7-0.7-1.2-0.8
		c-0.1-0.1-0.2-0.1-0.1-0.2c0.2-0.7,0-1.4-0.1-2.1c0-0.5,0.1-1-0.4-1.3c-0.1-0.1-0.2,0-0.3,0c-1.1,0.5-1.7,1.5-2.5,2.4
		c-1.4-0.4-2.5-1.5-2.9-2.9c-0.5-1.9,0.4-4,2.1-4.8c1.7-0.9,3.6-0.8,5.3,0c0.7,0.3,1.2,0.7,1.7,1.3c0.1,2.1,0.1,4.1,0,6.2
		c-0.4-0.2-0.7-0.5-1-0.8v6.8c0.5-0.4,0.9-1,1.6-0.9C143.5,30.3,143.4,30.7,143.4,30.9z M145.9,35.7c-0.5,0-0.8-0.4-0.8-0.8
		s0.4-0.8,0.8-0.8s0.8,0.4,0.8,0.8S146.3,35.7,145.9,35.7z M146.9,29.2h-2.1v-2.4h2.1V29.2z M149.7,35.4c-0.5,0-0.8-0.4-0.8-0.8
		c0-0.5,0.4-0.8,0.8-0.8s0.8,0.4,0.8,0.8C150.6,35,150.2,35.4,149.7,35.4z M153.4,34.3c-0.5,0-0.8-0.4-0.8-0.8s0.4-0.8,0.8-0.8
		s0.8,0.4,0.8,0.8S153.9,34.3,153.4,34.3z M155.2,25.4c-0.8-0.9-1.4-1.9-2.5-2.4c-0.1,0-0.2-0.1-0.3,0c-0.5,0.3-0.4,0.8-0.4,1.3
		c-0.1,0.7-0.2,1.4-0.1,2.1c0.1,0.1-0.1,0.2-0.1,0.2c-0.5,0.1-0.9,0.4-1.2,0.8c-0.2,0.4-0.4,0.9-0.2,1.3c0.1,0.1,0.2,0.5,0.3,0.3
		c0.3-0.4,0.8-0.6,1.2-0.5c0.6,0.2,0.9,0.7,0.9,1.3c0.1,1.1-0.6,2.1-1.6,2.4c-0.5,0.2-1.1,0.2-1.7,0.1c-0.7-0.2-1.1-0.7-1.4-1.4
		c0-0.2-0.1-0.5,0.1-0.6c0.7-0.1,1.1,0.5,1.6,0.9v-6.8c-0.4,0.2-0.7,0.6-1,0.8c-0.1-2.1-0.1-4.1,0-6.2c0.5-0.6,1.1-1,1.7-1.3
		c1.7-0.8,3.6-0.9,5.3,0c1.7,0.8,2.6,2.9,2.1,4.8C157.7,23.9,156.6,25,155.2,25.4z M158.9,27.1c-0.5,0-0.8-0.4-0.8-0.8
		s0.4-0.8,0.8-0.8s0.8,0.4,0.8,0.8S159.3,27.1,158.9,27.1z M160.7,18.5c0.5,0,0.8,0.4,0.8,0.8s-0.4,0.8-0.8,0.8
		c-0.5,0-0.8-0.4-0.8-0.8S160.2,18.5,160.7,18.5z M160.8,23.9c-0.5,0-0.8-0.4-0.8-0.8c0-0.5,0.4-0.8,0.8-0.8s0.8,0.4,0.8,0.8
		C161.7,23.5,161.3,23.9,160.8,23.9z"/>
	<polygon class="st2" points="148.9,6 146.2,8.8 148.9,11.6 	"/>
	<polygon class="st2" points="143.1,11.9 148.6,11.9 145.9,9.1 	"/>
</g>
</svg>
